# xmcd
#
# Track frame offsets: 
#        150
#        28773
#        50064
#        79524
#        99447
#        119980
#        135281
#        159514
#        193605
#        218508
#        237960
#        262160
#        294731
#        324863
#
# Disc length: 4645 seconds
#
# Revision: 3
# Processed by: cddbd v1.5.2PL0 Copyright (c) Steve Scherf et al.
# Submitted via: ExactAudioCopy v0.99pb5
#
DISCID=c712230e
DTITLE=Various Artist - Sensual Bedtime 1
DYEAR=1999
DGENRE=
TTITLE0=Nightmares On Wax - Morse
TTITLE1=De-Phazz - Café Cocca
TTITLE2=Moodorama - Sinzing Sunset Boulevard
TTITLE3=Mike P. - Get Loungy
TTITLE4=Wondabraa - Explore Me
TTITLE5=Breeder - Molo
TTITLE6=Mo'Horizons - Prince Charles' Latest Affair
TTITLE7=Jazzanova - Allee Der Kosmonauten
TTITLE8=Higher Than God - Beyond My Dreams
TTITLE9=Mandalay - This Life
TTITLE10=Lemongrass - Once Along The Way (Goodbye Mr. Grimmenstein) [W
TTITLE10=eathertunes RMX]
TTITLE11=Marcel - Early Morning
TTITLE12=Millenia Nova - I'm Dead
TTITLE13=Jimi Tenor - Sleep
EXTD=
EXTT0=
EXTT1=
EXTT2=
EXTT3=
EXTT4=
EXTT5=
EXTT6=
EXTT7=
EXTT8=
EXTT9=
EXTT10=
EXTT11=
EXTT12=
EXTT13=
PLAYORDER=
